<?xml version="1.0" encoding="UTF-8" standalone="no"?>
<svg id="placeholder" xmlns:rdf="http://www.w3.org/1999/02/22-rdf-syntax-ns#" xmlns="http://www.w3.org/2000/svg" enable-background="new 0 0 480 260" xml:space="preserve" height="260px" viewBox="0 0 480 260" width="480px" version="1.1" y="0px" x="0px" xmlns:cc="http://creativecommons.org/ns#" xmlns:dc="http://purl.org/dc/elements/1.1/"><metadata id="metadata22"><rdf:RDF><cc:Work rdf:about=""><dc:format>image/svg+xml</dc:format><dc:type rdf:resource="http://purl.org/dc/dcmitype/StillImage"/></cc:Work></rdf:RDF></metadata><rect id="rect8" height="260" width="480" fill="#151925"/><text id="text3767" style="word-spacing:0px;letter-spacing:0px" xml:space="preserve" font-size="40px" y="237.96609" x="-326.10168" font-family="Sans" line-height="125%" fill="#000000"><tspan id="tspan3769"/></text>
<g id="g3797" transform="matrix(.78976 0 0 .78976 49.93 43.643)"><g id="g3788"><text id="text2989" style="word-spacing:0px;letter-spacing:0px" xml:space="preserve" font-size="40px" y="176.43118" x="104.44131" font-family="Sans" line-height="125%" fill="#000000"><tspan id="tspan2991" font-weight="bold" y="176.43118" x="104.44131" font-family="Roboto" fill="#ffffff">MAXX<tspan id="tspan2993" font-weight="bold" font-family="Roboto" fill="#1fa2d6">FITNESS</tspan></tspan></text>
<g id="g10" fill="#fff" transform="translate(-1.2542 -47.695)"><path id="path12" d="m189.16 90v80h101.68v-80h-101.68zm93.492 71.324h-84.817v-62.65h84.817v62.65z"/><polygon id="polygon14" points="202.39 154.58 219.87 136.2 226.42 139.04 247.09 117.04 255.22 126.77 258.9 124.55 278.76 154.58"/><circle id="circle16" d="m 230.224,114.605 c 0,4.21725 -3.41876,7.636 -7.636,7.636 -4.21725,0 -7.636,-3.41875 -7.636,-7.636 0,-4.21724 3.41875,-7.636 7.636,-7.636 4.21724,0 7.636,3.41876 7.636,7.636 z" cx="222.59" cy="114.6" r="7.636"/></g></g></g></svg>
